<?xml version="1.0" encoding="utf-8" ?>
<svg baseProfile="full" height="200mm" version="1.1" viewBox="0,0,200,200" width="200mm" xmlns="http://www.w3.org/2000/svg" xmlns:ev="http://www.w3.org/2001/xml-events" xmlns:xlink="http://www.w3.org/1999/xlink"><defs /><rect fill="#1a1a1a" height="200" width="200" x="0" y="0" /><text alignment-baseline="middle" fill="#e1ed5e" style="dominant-baseline: central; font-size:9.0px; font-family:Arial;" text-anchor="middle" x="100.0" y="100.0">2023</text><line stroke="#e1ed5e" stroke-width="0.3" x1="100.0" x2="100.0" y1="15.0" y2="10.0" /><path d="M 100.0 14.0 a86.0,86.0 0 0,1 42.46469731375804,11.215312516191453" fill="none" id="id49" stroke="none" /><text fill="#e1ed5e" style="font-size:6.75px; font-family:Arial;" text-anchor="middle"><textPath startOffset="22.20632615414155" xlink:href="#id49">January</textPath></text><line stroke="#e1ed5e" stroke-width="0.3" x1="143.23703022742887" x2="145.7803849466894" y1="26.81831364943548" y2="22.513508569990506" /><path d="M 143.74570117128098 25.957352633546492 a86.0,86.0 0 0,1 28.547481713284135,27.462654790039103" fill="none" id="id50" stroke="none" /><text fill="#e1ed5e" style="font-size:6.75px; font-family:Arial;" text-anchor="middle"><textPath startOffset="19.985693538727396" xlink:href="#id50">February</textPath></text><line stroke="#e1ed5e" stroke-width="0.3" x1="172.23445277983987" x2="176.4835382374775" y1="55.19839476539836" y2="52.563006222186495" /><path d="M 173.08426987136738 54.67131705675599 a86.0,86.0 0 0,1 12.851231095245387,41.99856678651699" fill="none" id="id51" stroke="none" /><text fill="#e1ed5e" style="font-size:6.75px; font-family:Arial;" text-anchor="middle"><textPath startOffset="22.20632615414155" xlink:href="#id51">March</textPath></text><line stroke="#e1ed5e" stroke-width="0.3" x1="184.98032266829074" x2="189.97916517819016" y1="98.17113171792111" y2="98.06355123074" /><path d="M 185.9800911702706 98.14961562048488 a86.0,86.0 0 0,1 -9.607161424134198,41.387399972396054" fill="none" id="id52" stroke="none" /><text fill="#e1ed5e" style="font-size:6.75px; font-family:Arial;" text-anchor="middle"><textPath startOffset="21.466115282336823" xlink:href="#id52">April</textPath></text><line stroke="#e1ed5e" stroke-width="0.3" x1="174.80103733775053" x2="179.2010983576182" y1="140.37084112569926" y2="142.7455964860345" /><path d="M 175.68104954172406 140.8457921977663 a86.0,86.0 0 0,1 -30.038265399797805,32.042727171017184" fill="none" id="id53" stroke="none" /><text fill="#e1ed5e" style="font-size:6.75px; font-family:Arial;" text-anchor="middle"><textPath startOffset="22.206326154141568" xlink:href="#id53">May</textPath></text><line stroke="#e1ed5e" stroke-width="0.3" x1="143.8653032363475" x2="146.44561519142675" y1="172.8068346515853" y2="177.08958963109032" /><path d="M 144.38136562736335 173.6633856474863 a86.0,86.0 0 0,1 -40.68145358897372,12.25698825130547" fill="none" id="id54" stroke="none" /><text fill="#e1ed5e" style="font-size:6.75px; font-family:Arial;" text-anchor="middle"><textPath startOffset="21.466115282336833" xlink:href="#id54">June</textPath></text><path d="M 103.7750983002368 120.6578951692458 l 7.518821409262746 41.14410066066027 a62.82546705727185,62.82546705727185 0 0,0 -1.0654930814379149,0.18524962977466533 l -6.809479356352782 -41.26742886895594" fill="#31ff3c" stroke="none" /><path d="M 103.06178313531738 120.77559828337769 l 5.73203196302137 38.89445729763242 a60.314564717194195,60.314564717194195 0 0,0 -1.0284248171542292,0.1425303086293002 l -5.061678554680311 -38.98736217175433" fill="#40ff2d" stroke="none" /><path d="M 100.90346689309514 120.98055641714683 l 1.7034561605416343 39.5581269812135 a60.59478719670935,60.59478719670935 0 0,0 -1.0424601623226875,0.03590443578174314 l -1.0222756465442946 -39.581588215421334" fill="#3dff2e" stroke="none" /><line stroke="#e1ed5e" stroke-width="0.3" x1="102.19456741930631" x2="102.32365962044197" y1="184.97166512339345" y2="189.96999836594603" /><path d="M 102.22038585953345 185.97133177190398 a86.0,86.0 0 0,1 -42.740103519485714,-10.115201625700543" fill="none" id="id55" stroke="none" /><text fill="#e1ed5e" style="font-size:6.75px; font-family:Arial;" text-anchor="middle"><textPath startOffset="22.20632615414155" xlink:href="#id55">July</textPath></text><path d="M 98.37488393609728 120.93702456842531 l -3.0558156266081595 39.36930307440672 a60.4877200368458,60.4877200368458 0 0,0 -1.0373807656251819,-0.08950957752875506 l 3.733040709974883 -39.3108692445993" fill="#3eff2d" stroke="none" /><path d="M 97.65516085044442 120.86867818915974 l -4.126380905617782 36.72410332348461 a57.955199692224916,57.955199692224916 0 0,0 -0.9904062791009564,-0.11992440763059399 l 4.757914607770128 -36.64763338712867" fill="#59ff2a" stroke="none" /><path d="M 95.16358092515715 120.4354850818985 l -7.8108214323703775 33.0033279557695 a54.91502008851614,54.91502008851614 0 0,0 -0.9179874962063903,-0.22561899204271144 l 8.37776221331998 -32.86398770541276" fill="#7bff26" stroke="none" /><path d="M 92.7421414339146 119.70592522655815 l -13.860268179024505 37.63223075635316 a61.10351388212624,61.10351388212624 0 0,0 -0.983853221892111,-0.37200910354587946 l 14.5059916216769 -37.38807340270064" fill="#37ff2e" stroke="none" /><path d="M 91.07499286063937 119.00905698771935 l -16.46601939661461 35.07039223428141 a59.74354405879816,59.74354405879816 0 0,0 -0.9271268655967486,-0.44507723689328327 l 17.0672589302116 -34.78176072088856" fill="#46ff2c" stroke="none" /><path d="M 90.42595943632237 118.69057910512821 l -14.359115692409725 28.032071301939443 a52.495733440341155,52.495733440341155 0 0,0 -0.800707666642159,-0.4188924074057728 l 14.83951426157838 -27.780749475588955" fill="#98ff23" stroke="none" /><line stroke="#e1ed5e" stroke-width="0.3" x1="58.666819895761336" x2="56.23545636021788" y1="174.27360380694188" y2="178.64263932499728" /><path d="M 58.180547188652646 175.14741091055294 a86.0,86.0 0 0,1 -31.652253787137756,-30.449443065178592" fill="none" id="id56" stroke="none" /><text fill="#e1ed5e" style="font-size:6.75px; font-family:Arial;" text-anchor="middle"><textPath startOffset="22.20632615414155" xlink:href="#id56">August</textPath></text><path d="M 88.24862548938628 117.40417183066458 l -29.448319721466234 43.61392925515574 a73.6248834629724,73.6248834629724 0 0,0 -1.0442221266613498,-0.7182255004433784 l 30.194698732750474 -43.10056296534726" fill="#3fffbf" stroke="none" /><path d="M 86.24171649860922 115.8653595955263 l -28.44996570213886 32.80706756036793 a64.4246960883254,64.4246960883254 0 0,0 -0.831562216019507,-0.7337569715562278 l 29.010470271064957 -32.312487447039416" fill="#33ff50" stroke="none" /><path d="M 84.67929136418377 114.36230785411682 l -22.532148230383104 21.12262932426133 a51.884675381912324,51.884675381912324 0 0,0 -0.6052065526083331,-0.6568321831105229 l 22.89240119098717 -20.73164588634946" fill="#9fff22" stroke="none" /><path d="M 84.43433777217949 114.09645910891817 l -20.05244436769753 18.159745337264955 a48.05322302118401,48.05322302118401 0 0,0 -0.5499603285245865,-0.6178862591867921 l 20.362063545870452 -17.811884908337298" fill="#ceff1d" stroke="none" /><path d="M 83.28015986056508 112.70617746262583 l -19.59384031273645 14.890262712547418 a45.60972372558652,45.60972372558652 0 0,0 -0.46964708975275976,-0.6291690253543407 l 19.847248669184296 -14.55078080768377" fill="#edff1a" stroke="none" /><path d="M 82.85270091963577 112.12312394758628 l -31.88635694641671 22.54362367429924 a60.05066872260605,60.05066872260605 0 0,0 -0.5894662083231063,-0.8491700375567112 l 32.26968406190195 -21.991412374555516" fill="#43ff2d" stroke="none" /><line stroke="#e1ed5e" stroke-width="0.3" x1="26.63291911575756" x2="22.317208475507996" y1="142.92168965132927" y2="145.44649492493687" /><path d="M 25.769776987707644 143.4266507060508 a86.0,86.0 0 0,1 -11.730757126820373,-40.83630448921669" fill="none" id="id57" stroke="none" /><text fill="#e1ed5e" style="font-size:6.75px; font-family:Arial;" text-anchor="middle"><textPath startOffset="21.46611528233685" xlink:href="#id57">September</textPath></text><path d="M 81.51974371655577 109.97397251340807 l -37.379943224590676 20.174315797169047 a63.47661913756234,63.47661913756234 0 0,0 -0.510676932840731,-0.966008303307694 l 37.72167266565629 -19.527892478775225" fill="#31ff44" stroke="none" /><path d="M 81.02952815118164 109.00673069616217 l -5.0092522077978385 2.3782742983064566 a26.54515971991002,26.54515971991002 0 0,0 -0.1924212909243477,-0.41445834204937554 l 5.049448115562012 -2.291695888978254" fill="#ff0000" stroke="none" /><path d="M 80.58989483394504 108.01547362559985 l -41.37011034485911 17.08393774894577 a65.75876404633703,65.75876404633703 0 0,0 -0.42303986249168635,-1.0499502454577434 l 41.65805282160818 -16.369288135645224" fill="#35ff61" stroke="none" /><path d="M 80.45479744820244 107.68017299344265 l -24.496523786587037 9.625765704928362 a47.319860239617526,47.319860239617526 0 0,0 -0.29136802941991474,-0.7606699827449314 l 24.658586095600462 -9.202672155350273" fill="#d7ff1c" stroke="none" /><path d="M 79.67330655649465 105.27499134158121 l -36.72850737882501 9.53143505366373 a58.94511178608666,58.94511178608666 0 0,0 -0.24641494725863824,-0.9843052241423463 l 36.88713364037871 -8.897801990123991" fill="#4eff2b" stroke="none" /><path d="M 79.23777060512086 103.15116336523772 l -21.539097183392006 3.2690715757788684 a42.78576453657688,42.78576453657688 0 0,0 -0.1042463926425857,-0.729099027342592 l 21.59217762705119 -2.897827076455876" fill="#ffec16" stroke="none" /><path d="M 79.18660465613746 102.79330883721812 l -40.35634475930694 5.416114602715916 a61.71816375675349,61.71816375675349 0 0,0 -0.1322487724337993,-1.0541528370252289 l 40.44359504098759 -4.720644011403278" fill="#31ff2f" stroke="none" /><line stroke="#e1ed5e" stroke-width="0.3" x1="15.007084014347285" x2="10.007500721073583" y1="101.09737516637583" y2="101.16192664675087" /><path d="M 14.007167355692545 101.11028546245083 a86.0,86.0 0 0,1 10.666146001902534,-42.60595125391555" fill="none" id="id58" stroke="none" /><text fill="#e1ed5e" style="font-size:6.75px; font-family:Arial;" text-anchor="middle"><textPath startOffset="22.20632615414155" xlink:href="#id58">October</textPath></text><path d="M 80.2630227832202 92.82701384747504 l -37.578211629585645 -13.657004752810286 a60.98294346463512,60.98294346463512 0 0,0 0.3670459158854541,-0.9835005708247452 l 37.33756112519856 14.301828460664373" fill="#39ff2e" stroke="none" /><path d="M 81.26839172434947 90.50648371742162 l -23.627119265262976 -11.974649381642887 a47.48835579246551,47.48835579246551 0 0,0 0.3758150841640012,-0.7259551230660872 l 23.41749474793886 12.37957722696931" fill="#d5ff1c" stroke="none" /><line stroke="#e1ed5e" stroke-width="0.3" x1="26.266209847984243" x2="21.928928074336255" y1="57.711370442889674" y2="55.22380399835377" /><path d="M 25.398753493254645 57.213857153982495 a86.0,86.0 0 0,1 29.58750427330803,-30.492523968695096" fill="none" id="id59" stroke="none" /><text fill="#e1ed5e" style="font-size:6.75px; font-family:Arial;" text-anchor="middle"><textPath startOffset="21.46611528233685" xlink:href="#id59">November</textPath></text><path d="M 82.34701348167596 88.62581576622439 l -24.263507953563735 -15.633479883703815 a49.86387900970385,49.86387900970385 0 0,0 0.47110292236337237,-0.7175220712731277 l 23.990808395842443 16.04882001895461" fill="#b7ff1f" stroke="none" /><path d="M 82.54541684631803 88.32363383020206 l -28.534331546708202 -19.088241788203316 a55.33029349397378,55.33029349397378 0 0,0 0.5363759077495777,-0.7870654593118047 l 28.201531173289883 19.576585270785536" fill="#77ff27" stroke="none" /><path d="M 83.6137871275137 86.86637796730984 l -27.052695021056504 -21.682854613024755 a55.66979221270102,55.66979221270102 0 0,0 0.6057443555426706,-0.7425709558764888 l 26.675452173437442 22.145309738509326" fill="#73ff27" stroke="none" /><path d="M 83.84228863543731 86.58626213691792 l -16.340993636854737 -13.56589433499849 a42.23820995630449,42.23820995630449 0 0,0 0.4692250518146817,-0.5554144601485645 l 16.10505797155293 13.84516774477617" fill="#ffe515" stroke="none" /><path d="M 84.07557802195018 86.31012108654704 l -24.201235453222974 -20.805275278893458 a52.914875479827145,52.914875479827145 0 0,0 0.5997224239030534,-0.6855864030247282 l 23.839521165742077 21.21877723812113" fill="#93ff23" stroke="none" /><path d="M 85.57189188830299 84.74124197986013 l -22.342563575479822 -23.62886169888416 a53.519428843529106,53.519428843529106 0 0,0 0.6748344200746994,-0.627185047347464 l 21.932521271610266 24.009951332306276" fill="#8cff24" stroke="none" /><path d="M 87.51073957382395 83.11751280151077 l -17.352471083237646 -23.45638259819764 a50.17721949205626,50.17721949205626 0 0,0 0.6987887072760082,-0.5076997139259106 l 16.946137059607857 23.75160154694022" fill="#b4ff20" stroke="none" /><path d="M 87.80319425747018 82.90503203632743 l -32.35883892459571 -45.35394975003242 a76.71422811523459,76.71422811523459 0 0,0 1.0815568617046016,-0.7576996993697218 l 31.57335092330745 45.90423429216609" fill="#43ffe1" stroke="none" /><line stroke="#e1ed5e" stroke-width="0.3" x1="56.762969772571076" x2="54.21961505331055" y1="26.818313649435495" y2="22.513508569990535" /><path d="M 56.25429882871897 25.957352633546506 a86.0,86.0 0 0,1 42.265352541879196,-11.944610805530505" fill="none" id="id60" stroke="none" /><text fill="#e1ed5e" style="font-size:6.75px; font-family:Arial;" text-anchor="middle"><textPath startOffset="22.20632615414155" xlink:href="#id60">December</textPath></text><path d="M 89.94658935756843 81.56283822128135 l -30.16023192729471 -55.31148533615593 a84.0,84.0 0 0,0 1.2754198138867787,-0.6812850939930022 l 29.20366706687963 55.822449156650684" fill="#4dd2ff" stroke="none" /></svg>