<?xml version="1.0" encoding="utf-8" ?>
<svg baseProfile="full" height="200mm" version="1.1" viewBox="0,0,200,200" width="200mm" xmlns="http://www.w3.org/2000/svg" xmlns:ev="http://www.w3.org/2001/xml-events" xmlns:xlink="http://www.w3.org/1999/xlink"><defs /><rect fill="#1a1a1a" height="200" width="200" x="0" y="0" /><text alignment-baseline="middle" fill="#e1ed5e" style="dominant-baseline: central; font-size:9.0px; font-family:Arial;" text-anchor="middle" x="100.0" y="100.0">2024</text><line stroke="#e1ed5e" stroke-width="0.3" x1="100.0" x2="100.0" y1="15.0" y2="10.0" /><path d="M 100.0 14.0 a86.0,86.0 0 0,1 42.35913384403234,11.155469271406648" fill="none" id="id61" stroke="none" /><text fill="#e1ed5e" style="font-size:6.75px; font-family:Arial;" text-anchor="middle"><textPath startOffset="22.145653131862478" xlink:href="#id61">January</textPath></text><path d="M 100.0 79.0 l 0.0 -41.40973760743481 a62.40973760743481,62.40973760743481 0 0,0 1.0713461356739877,0.009196218065123945 l -0.7108532108251331 41.40363578756413" fill="#41ff2d" stroke="none" /><path d="M 101.08105385017728 79.02784411241856 l 1.9026575473129756 -36.91104811882183 a57.96005382804965,57.96005382804965 0 0,0 0.9932025105109601,0.0597485966929371 l -2.536004409956398 36.8729475443042" fill="#77ff27" stroke="none" /><path d="M 102.15924093988457 79.11130261209362 l 5.928921145147219 -57.35693379561447 a78.66255249622475,78.66255249622475 0 0,0 1.3419984975161887,0.15037373078768684 l -6.9126555442642035 57.24670430431981" fill="#45fff0" stroke="none" /><path d="M 103.94208987418118 79.37332000966035 l 3.3468017033479924 -17.511880735702885 a38.82882633666655,38.82882633666655 0 0,0 0.6536250748914174,0.13074332081613127 l -3.646923263770367 17.451848018223895" fill="#ff740a" stroke="none" /><path d="M 106.38641147887787 79.99465700312896 l 10.018569318779287 -31.383025698075414 a53.94337616519059,53.94337616519059 0 0,0 0.8797323710044047,0.289185504054348 l -10.555824427431434 31.206419272619044" fill="#abff21" stroke="none" /><path d="M 107.06938296918511 80.22567764915836 l 11.370353277224188 -31.804901775281404 a54.77627437394748,54.77627437394748 0 0,0 0.8827088323863808,0.3241429100436075 l -11.914651261264694 31.605028016229078" fill="#a0ff22" stroke="none" /><line stroke="#e1ed5e" stroke-width="0.3" x1="143.13028292997686" x2="145.6673583964461" y1="26.7553504044142" y2="22.446841604673864" /><path d="M 143.63769802327073 25.89364864446614 a86.0,86.0 0 0,1 29.32050498858742,28.57503671076993" fill="none" id="id62" stroke="none" /><text fill="#e1ed5e" style="font-size:6.75px; font-family:Arial;" text-anchor="middle"><textPath startOffset="20.669276256404974" xlink:href="#id62">February</textPath></text><path d="M 114.65682725009322 84.96080404539774 l 11.728174244526969 -12.034139970643283 a37.80388633450667,37.80388633450667 0 0,0 0.4608619215296287,0.45692295441625735 l -11.93302808618656 11.831037005998365" fill="#ff6309" stroke="none" /><line stroke="#e1ed5e" stroke-width="0.3" x1="172.87174338648825" x2="177.1583165268699" y1="56.24261187166439" y2="53.66864786411523" /><path d="M 173.72905801456457 55.72781907015455 a86.0,86.0 0 0,1 12.242430191666344,42.057860355516425" fill="none" id="id63" stroke="none" /><text fill="#e1ed5e" style="font-size:6.75px; font-family:Arial;" text-anchor="middle"><textPath startOffset="22.145653131862474" xlink:href="#id63">March</textPath></text><path d="M 119.31412917781788 91.75594674310238 l 10.039153380806045 -4.285117613305689 a31.915440145189386,31.915440145189386 0 0,0 0.21075460516097896,0.5057343298662749 l -10.111233830503506 4.112150773998136" fill="#ff0000" stroke="none" /><path d="M 120.16314734710363 94.1308016681162 l 41.89602925030062 -12.195323515489827 a64.63488492696531,64.63488492696531 0 0,0 0.3009569767973589,1.067990138528454 l -42.09920471917257 11.47432545305836" fill="#30ff39" stroke="none" /><path d="M 120.26092885502905 94.47779374421319 l 47.30116828629205 -12.892143755381255 a70.02660391927567,70.02660391927567 0 0,0 0.3061513744433433,1.1625066351820805 l -47.51550914154012 12.078256615826376" fill="#38ff84" stroke="none" /><path d="M 120.35273937422433 94.82641323984039 l 61.058218122672976 -15.520760280478832 a84.0,84.0 0 0,0 0.3432498939348352,1.4005767015676203 l -61.3156555431241 14.470327754303117" fill="#4dd2ff" stroke="none" /><path d="M 120.7213421655516 96.59031103205396 l 38.23309702841421 -6.291241566625821 a59.74725059709109,59.74725059709109 0 0,0 0.1578423005698932,1.0134607980851238 l -38.33546082112237 5.633992586609256" fill="#61ff29" stroke="none" /><line stroke="#e1ed5e" stroke-width="0.3" x1="184.99686870605535" x2="189.99668451229388" y1="99.2704041080226" y2="99.22748670261217" /><path d="M 185.99683186730306 99.26182062694052 a86.0,86.0 0 0,1 -10.086455211305974,41.156179273409016" fill="none" id="id64" stroke="none" /><text fill="#e1ed5e" style="font-size:6.75px; font-family:Arial;" text-anchor="middle"><textPath startOffset="21.40746469413373" xlink:href="#id64">April</textPath></text><line stroke="#e1ed5e" stroke-width="0.3" x1="174.33088141563837" x2="178.70328620479359" y1="141.23008692659167" y2="143.65538615756765" /><path d="M 175.20536237346943 141.71514677278685 a86.0,86.0 0 0,1 -30.301960400862466,31.631185727798858" fill="none" id="id65" stroke="none" /><text fill="#e1ed5e" style="font-size:6.75px; font-family:Arial;" text-anchor="middle"><textPath startOffset="22.145653131862474" xlink:href="#id65">May</textPath></text><line stroke="#e1ed5e" stroke-width="0.3" x1="143.1302829299769" x2="145.66735839644613" y1="173.24464959558577" y2="177.55315839532614" /><path d="M 143.63769802327073 174.10635135553383 a86.0,86.0 0 0,1 -40.68552437913181,11.842963189579606" fill="none" id="id66" stroke="none" /><text fill="#e1ed5e" style="font-size:6.75px; font-family:Arial;" text-anchor="middle"><textPath startOffset="21.407464694133747" xlink:href="#id66">June</textPath></text><line stroke="#e1ed5e" stroke-width="0.3" x1="101.45913802915013" x2="101.54496967792366" y1="184.9874750549273" y2="189.98673829345242" /><path d="M 101.47630435890484 185.9873277026323 a86.0,86.0 0 0,1 -42.54439059252881,-10.42667462771756" fill="none" id="id67" stroke="none" /><text fill="#e1ed5e" style="font-size:6.75px; font-family:Arial;" text-anchor="middle"><textPath startOffset="22.145653131862474" xlink:href="#id67">July</textPath></text><line stroke="#e1ed5e" stroke-width="0.3" x1="58.13341422392154" x2="55.67067388415222" y1="173.97424548756322" y2="178.32567169271397" /><path d="M 57.64086615596768 174.84453072859336 a86.0,86.0 0 0,1 -31.369924170532247,-30.572349798747897" fill="none" id="id68" stroke="none" /><text fill="#e1ed5e" style="font-size:6.75px; font-family:Arial;" text-anchor="middle"><textPath startOffset="22.145653131862474" xlink:href="#id68">August</textPath></text><line stroke="#e1ed5e" stroke-width="0.3" x1="26.387840678322732" x2="22.057713659400548" y1="142.50000000000003" y2="145.00000000000006" /><path d="M 25.521815274538298 143.00000000000003 a86.0,86.0 0 0,1 -11.493303480769221,-40.785679425670985" fill="none" id="id69" stroke="none" /><text fill="#e1ed5e" style="font-size:6.75px; font-family:Arial;" text-anchor="middle"><textPath startOffset="21.40746469413373" xlink:href="#id69">September</textPath></text><line stroke="#e1ed5e" stroke-width="0.3" x1="15.003131293944662" x2="10.003315487706104" y1="100.72959589197737" y2="100.7725132973878" /><path d="M 14.003168132696942 100.73817937305945 a86.0,86.0 0 0,1 10.791469493833604,-42.45332614584628" fill="none" id="id70" stroke="none" /><text fill="#e1ed5e" style="font-size:6.75px; font-family:Arial;" text-anchor="middle"><textPath startOffset="22.145653131862435" xlink:href="#id70">October</textPath></text><line stroke="#e1ed5e" stroke-width="0.3" x1="26.387840678322718" x2="22.05771365940052" y1="57.49999999999999" y2="54.99999999999999" /><path d="M 25.521815274538284 56.99999999999999 a86.0,86.0 0 0,1 29.574782752854787,-30.34633250058573" fill="none" id="id71" stroke="none" /><text fill="#e1ed5e" style="font-size:6.75px; font-family:Arial;" text-anchor="middle"><textPath startOffset="21.40746469413373" xlink:href="#id71">November</textPath></text><line stroke="#e1ed5e" stroke-width="0.3" x1="56.869717070023135" x2="54.33264160355391" y1="26.7553504044142" y2="22.446841604673864" /><path d="M 56.362301976729285 25.89364864446614 a86.0,86.0 0 0,1 42.16139366436587,-11.88097634709845" fill="none" id="id72" stroke="none" /><text fill="#e1ed5e" style="font-size:6.75px; font-family:Arial;" text-anchor="middle"><textPath startOffset="22.145653131862474" xlink:href="#id72">December</textPath></text></svg>