<?xml version="1.0" encoding="utf-8" ?>
<svg baseProfile="full" height="200mm" version="1.1" viewBox="0,0,200,200" width="200mm" xmlns="http://www.w3.org/2000/svg" xmlns:ev="http://www.w3.org/2001/xml-events" xmlns:xlink="http://www.w3.org/1999/xlink"><defs /><rect fill="#1a1a1a" height="200" width="200" x="0" y="0" /><text alignment-baseline="middle" fill="#e1ed5e" style="dominant-baseline: central; font-size:9.0px; font-family:Arial;" text-anchor="middle" x="100.0" y="100.0">2024</text><line stroke="#e1ed5e" stroke-width="0.3" x1="100.0" x2="100.0" y1="15.0" y2="10.0" /><path d="M 100.0 14.0 a86.0,86.0 0 0,1 42.35913384403234,11.155469271406648" fill="none" id="id61" stroke="none" /><text fill="#e1ed5e" style="font-size:6.75px; font-family:Arial;" text-anchor="middle"><textPath startOffset="22.145653131862478" xlink:href="#id61">January</textPath></text><path d="M 100.0 79.0 l 0.0 -39.92701313098492 a60.92701313098492,60.92701313098492 0 0,0 1.045893198375873,0.008977735210706278 l -0.6854002735270183 39.921129793968646" fill="#51ff2b" stroke="none" /><path d="M 101.08105385017728 79.02784411241856 l 1.8345306506287389 -35.5894045233944 a56.63665552542637,56.63665552542637 0 0,0 0.9705247793882315,0.058384360702367855 l -2.445199782149433 35.552668184867336" fill="#86ff25" stroke="none" /><path d="M 102.15924093988457 79.11130261209362 l 5.716629133442396 -55.303201158158565 a76.59787682087395,76.59787682087395 0 0,0 1.306774727548745,0.14642683389308142 l -6.665139762591938 55.19691856375851" fill="#42ffd8" stroke="none" /><path d="M 103.94208987418118 79.37332000966035 l 3.2269655225341505 -16.884847199734853 a38.19044418978224,38.19044418978224 0 0,0 0.6428788685819937,0.12859377858918608 l -3.516340876647101 16.82696402448281" fill="#ff6f0a" stroke="none" /><path d="M 106.38641147887787 79.99465700312896 l 9.659842632588044 -30.259319462872465 a52.76379974188444,52.76379974188444 0 0,0 0.8604953184239685,0.282861902774743 l -10.177860688659754 30.089036638695703" fill="#b8ff1f" stroke="none" /><path d="M 107.06938296918511 80.22567764915836 l 10.963224372669245 -30.66608976974898 a53.566875048303174,53.566875048303174 0 0,0 0.8632196013492275,0.3169861944527864 l -11.488033125672597 30.47337272628747" fill="#adff20" stroke="none" /><line stroke="#e1ed5e" stroke-width="0.3" x1="143.13028292997686" x2="145.6673583964461" y1="26.7553504044142" y2="22.446841604673864" /><path d="M 143.63769802327073 25.89364864446614 a86.0,86.0 0 0,1 29.32050498858742,28.57503671076993" fill="none" id="id62" stroke="none" /><text fill="#e1ed5e" style="font-size:6.75px; font-family:Arial;" text-anchor="middle"><textPath startOffset="20.669276256404974" xlink:href="#id62">February</textPath></text><path d="M 114.65682725009322 84.96080404539774 l 11.308233138372577 -11.603243400936618 a37.20220337278751,37.20220337278751 0 0,0 0.45352688820961723,0.4496506133120122 l -11.505751946712158 11.407412777395946" fill="#ff5f08" stroke="none" /><line stroke="#e1ed5e" stroke-width="0.3" x1="172.87174338648825" x2="177.1583165268699" y1="56.24261187166439" y2="53.66864786411523" /><path d="M 173.72905801456457 55.72781907015455 a86.0,86.0 0 0,1 12.242430191666344,42.057860355516425" fill="none" id="id63" stroke="none" /><text fill="#e1ed5e" style="font-size:6.75px; font-family:Arial;" text-anchor="middle"><textPath startOffset="22.145653131862474" xlink:href="#id63">March</textPath></text><path d="M 119.31412917781788 91.75594674310238 l 9.679689658005652 -4.1316839250764215 a31.524599941662224,31.524599941662224 0 0,0 0.20817367967786857,0.4995410482597418 l -9.749189182220004 3.964910367375402" fill="#ff0000" stroke="none" /><path d="M 120.16314734710363 94.1308016681162 l 40.395892528247884 -11.758655578927119 a63.07248642732667,63.07248642732667 0 0,0 0.2936820395937838,1.0421739528579574 l -40.59179305991625 11.063473702166148" fill="#38ff2e" stroke="none" /><path d="M 120.26092885502905 94.47779374421319 l 45.607494188483514 -12.430525348589363 a68.27114856436725,68.27114856436725 0 0,0 0.29847664741675956,1.13336444659045 l -45.814160316705 11.645780397626115" fill="#36ff6e" stroke="none" /><path d="M 120.35273937422433 94.82641323984039 l 58.871956636131955 -14.965021159909146 a81.74421072401164,81.74421072401164 0 0,0 0.33403204358099775,1.362964726524818 l -59.120176206229246 13.952200608776232" fill="#4aebff" stroke="none" /><path d="M 120.7213421655516 96.59031103205396 l 36.86411591310438 -6.06597624506 a58.35985960707598,58.35985960707598 0 0,0 0.15417704428670972,0.9899272234696371 l -36.962814449529354 5.432260839658921" fill="#70ff27" stroke="none" /><path d="M 120.77682067341334 96.94652285012252 l 40.09047101482163 -5.891918647987846 a61.521112664199634,61.521112664199634 0 0,0 0.1445906789334671,1.0461861249964508 l -40.18570621031031 5.20284421479131" fill="#4aff2c" stroke="none" /><path d="M 120.82617615685814 97.30363454192243 l 37.318690366881135 -4.831651614202562 a58.63016752580532,58.63016752580532 0 0,0 0.1206606439386535,0.9992432228821572 l -37.396133097079456 4.190314714396991" fill="#6dff28" stroke="none" /><path d="M 120.98066250479742 99.09900007780936 l 38.71089909179345 -1.6624125697489482 a59.74657822372286,59.74657822372286 0 0,0 0.03520869554218417,1.0250627546541484 l -38.733732474332484 0.9976435505306799" fill="#5fff29" stroke="none" /><line stroke="#e1ed5e" stroke-width="0.3" x1="184.99686870605535" x2="189.99668451229388" y1="99.2704041080226" y2="99.22748670261217" /><path d="M 185.99683186730306 99.26182062694052 a86.0,86.0 0 0,1 -10.086455211305974,41.156179273409016" fill="none" id="id64" stroke="none" /><text fill="#e1ed5e" style="font-size:6.75px; font-family:Arial;" text-anchor="middle"><textPath startOffset="21.40746469413373" xlink:href="#id64">April</textPath></text><path d="M 120.98066250479742 100.90099992219065 l 62.94198751439227 2.702999766571932 a84.0,84.0 0 0,0 -0.07423364217370931,1.4401128264930774 l -62.886312282761985 -3.7830843864417396" fill="#4dd2ff" stroke="none" /><path d="M 120.96210409425399 101.26102812881392 l 57.675505612704605 3.469615196745525 a78.77977308102385,78.77977308102385 0 0,0 -0.09279521553997559,1.3492220682008982 l -57.60744643599956 -4.459180689100767" fill="#45fff2" stroke="none" /><path d="M 120.93736805541906 101.62068470465957 l 15.885682909912848 1.2296523253076272 a36.93320326724766,36.93320326724766 0 0,0 -0.054355786436123266,0.6316966317424746 l -15.862233500778984 -1.502170004425759" fill="#ff5b08" stroke="none" /><line stroke="#e1ed5e" stroke-width="0.3" x1="174.33088141563837" x2="178.70328620479359" y1="141.23008692659167" y2="143.65538615756765" /><path d="M 175.20536237346943 141.71514677278685 a86.0,86.0 0 0,1 -30.301960400862466,31.631185727798858" fill="none" id="id65" stroke="none" /><text fill="#e1ed5e" style="font-size:6.75px; font-family:Arial;" text-anchor="middle"><textPath startOffset="22.145653131862474" xlink:href="#id65">May</textPath></text><line stroke="#e1ed5e" stroke-width="0.3" x1="143.1302829299769" x2="145.66735839644613" y1="173.24464959558577" y2="177.55315839532614" /><path d="M 143.63769802327073 174.10635135553383 a86.0,86.0 0 0,1 -40.68552437913181,11.842963189579606" fill="none" id="id66" stroke="none" /><text fill="#e1ed5e" style="font-size:6.75px; font-family:Arial;" text-anchor="middle"><textPath startOffset="21.407464694133747" xlink:href="#id66">June</textPath></text><line stroke="#e1ed5e" stroke-width="0.3" x1="101.45913802915013" x2="101.54496967792366" y1="184.9874750549273" y2="189.98673829345242" /><path d="M 101.47630435890484 185.9873277026323 a86.0,86.0 0 0,1 -42.54439059252881,-10.42667462771756" fill="none" id="id67" stroke="none" /><text fill="#e1ed5e" style="font-size:6.75px; font-family:Arial;" text-anchor="middle"><textPath startOffset="22.145653131862474" xlink:href="#id67">July</textPath></text><line stroke="#e1ed5e" stroke-width="0.3" x1="58.13341422392154" x2="55.67067388415222" y1="173.97424548756322" y2="178.32567169271397" /><path d="M 57.64086615596768 174.84453072859336 a86.0,86.0 0 0,1 -31.369924170532247,-30.572349798747897" fill="none" id="id68" stroke="none" /><text fill="#e1ed5e" style="font-size:6.75px; font-family:Arial;" text-anchor="middle"><textPath startOffset="22.145653131862474" xlink:href="#id68">August</textPath></text><line stroke="#e1ed5e" stroke-width="0.3" x1="26.387840678322732" x2="22.057713659400548" y1="142.50000000000003" y2="145.00000000000006" /><path d="M 25.521815274538298 143.00000000000003 a86.0,86.0 0 0,1 -11.493303480769221,-40.785679425670985" fill="none" id="id69" stroke="none" /><text fill="#e1ed5e" style="font-size:6.75px; font-family:Arial;" text-anchor="middle"><textPath startOffset="21.40746469413373" xlink:href="#id69">September</textPath></text><line stroke="#e1ed5e" stroke-width="0.3" x1="15.003131293944662" x2="10.003315487706104" y1="100.72959589197737" y2="100.7725132973878" /><path d="M 14.003168132696942 100.73817937305945 a86.0,86.0 0 0,1 10.791469493833604,-42.45332614584628" fill="none" id="id70" stroke="none" /><text fill="#e1ed5e" style="font-size:6.75px; font-family:Arial;" text-anchor="middle"><textPath startOffset="22.145653131862435" xlink:href="#id70">October</textPath></text><line stroke="#e1ed5e" stroke-width="0.3" x1="26.387840678322718" x2="22.05771365940052" y1="57.49999999999999" y2="54.99999999999999" /><path d="M 25.521815274538284 56.99999999999999 a86.0,86.0 0 0,1 29.574782752854787,-30.34633250058573" fill="none" id="id71" stroke="none" /><text fill="#e1ed5e" style="font-size:6.75px; font-family:Arial;" text-anchor="middle"><textPath startOffset="21.40746469413373" xlink:href="#id71">November</textPath></text><line stroke="#e1ed5e" stroke-width="0.3" x1="56.869717070023135" x2="54.33264160355391" y1="26.7553504044142" y2="22.446841604673864" /><path d="M 56.362301976729285 25.89364864446614 a86.0,86.0 0 0,1 42.16139366436587,-11.88097634709845" fill="none" id="id72" stroke="none" /><text fill="#e1ed5e" style="font-size:6.75px; font-family:Arial;" text-anchor="middle"><textPath startOffset="22.145653131862474" xlink:href="#id72">December</textPath></text></svg>