<?xml version="1.0" encoding="utf-8" ?>
<svg baseProfile="full" height="200mm" version="1.1" viewBox="0,0,200,200" width="200mm" xmlns="http://www.w3.org/2000/svg" xmlns:ev="http://www.w3.org/2001/xml-events" xmlns:xlink="http://www.w3.org/1999/xlink"><defs /><rect fill="#1a1a1a" height="200" width="200" x="0" y="0" /><text alignment-baseline="middle" fill="#e1ed5e" style="dominant-baseline: central; font-size:9.0px; font-family:Arial;" text-anchor="middle" x="100.0" y="100.0">2026</text><line stroke="#e1ed5e" stroke-width="0.3" x1="100.0" x2="100.0" y1="15.0" y2="10.0" /><path d="M 100.0 14.0 a86.0,86.0 0 0,1 42.46469731375804,11.215312516191453" fill="none" id="id85" stroke="none" /><text fill="#e1ed5e" style="font-size:6.75px; font-family:Arial;" text-anchor="middle"><textPath startOffset="22.20632615414155" xlink:href="#id85">January</textPath></text><path d="M 100.0 79.0 l 0.0 -34.310400802445905 a55.310400802445905,55.310400802445905 0 0,0 0.9520776281344658,0.0081948327269879 l -0.5905971488619375 34.30531734632748" fill="#a9ff21" stroke="none" /><path d="M 100.36148047927253 79.00311137660856 l 0.5111611622853444 -29.691213242574563 a50.69561296807769,50.69561296807769 0 0,0 0.87238305900633,0.02253108063340748 l -1.0221708564865422 29.678015369798793" fill="#ecff1a" stroke="none" /><path d="M 100.72285384407766 79.0124445844662 l 0.9989821380504279 -29.004747160491362 a50.02194554395304,50.02194554395304 0 0,0 0.8602802007104888,0.037045475090066414 l -1.4981031711502482 28.983253958877103" fill="#f6ff19" stroke="none" /><path d="M 101.08401301168833 79.027996857942 l 1.4660907126841916 -28.36392063695553 a49.40178543467524,49.40178543467524 0 0,0 0.8488590019006341,0.05120549312802825 l -1.9541117634244376 28.3344818744472" fill="#ffff18" stroke="none" /><path d="M 102.16513564639614 79.11191278185805 l 6.087233150361862 -58.72641613635884 a80.04105655937784,80.04105655937784 0 0,0 1.3692101239233252,0.1538467110107142 l -7.097209977794913 58.612933471877525" fill="#47fffe" stroke="none" /><path d="M 102.52436894288641 79.15227682838746 l 2.74934389847304 -22.705698650130785 a43.87154658221918,43.87154658221918 0 0,0 0.7489192041575009,0.09723120682472229 l -3.139777831138387 22.655009120141926" fill="#ffa90f" stroke="none" /><path d="M 102.88285421437855 79.19881850522331 l 8.027279414272387 -57.92068678768024 a79.47429497438475,79.47429497438475 0 0,0 1.3534511019715703,0.19946351012229813 l -9.023099496672614 57.77392879339697" fill="#46fff7" stroke="none" /><path d="M 103.2404852339499 79.25152402106235 l 5.4057446054910665 -34.61239721761901 a56.031987038848314,56.031987038848314 0 0,0 0.9516653951791564,0.15703294438832083 l -6.000739206809098 34.51421801029107" fill="#a0ff22" stroke="none" /><path d="M 103.59715602781102 79.31037775812273 l 4.9885464353591935 -28.692428264350834 a50.12286104150232,50.12286104150232 0 0,0 0.8487587586018838,0.15510523800504042 l -5.481700315063978 28.602307544995053" fill="#f4ff19" stroke="none" /><path d="M 103.95276090670814 79.375362276772 l 3.8403944551620457 -20.038334273543104 a41.40302600178443,41.40302600178443 0 0,0 0.6987915792732584,0.1401710169123501 l -4.184752443902429 19.969259300553546" fill="#ff800b" stroke="none" /><path d="M 104.66035177308747 79.52364482259891 l 5.383984112250166 -23.655804608689916 a45.26075795612077,45.26075795612077 0 0,0 0.758174407575514,0.17943538664046463 l -5.7903822067882045 23.559623309908584" fill="#ffbf11" stroke="none" /><path d="M 105.71112130821622 79.79150937346287 l 7.14464201227713 -25.280925293488714 a47.27110757426403,47.27110757426403 0 0,0 0.7811207974913246,0.22803058053031802 l -7.5787530274918815 25.154196384039693" fill="#ffde14" stroke="none" /><path d="M 106.0581310904928 79.89281104454417 l 18.174393271478365 -60.321566866367476 a84.0,84.0 0 0,0 1.380858509157127,0.4290394604699177 l -19.21003715334621 59.99978727101504" fill="#4dd2ff" stroke="none" /><path d="M 106.40334571778207 80.00007090966166 l 10.196303018498837 -31.8466855205521 a54.43913835447904,54.43913835447904 0 0,0 0.8899948256863957,0.29341730118474546 l -10.74298066642765 31.666454495108116" fill="#b6ff1f" stroke="none" /><path d="M 106.74666289553966 80.11325718540242 l 17.253703752026166 -50.857731359698555 a74.70474031422131,74.70474031422131 0 0,0 1.214193916715409,0.4236084162194891 l -18.126579672804848 50.55320209030686" fill="#3fffbb" stroke="none" /><path d="M 107.76421540070413 80.48803036053334 l 13.28780118823072 -33.39309382587628 a56.93973254883406,56.93973254883406 0 0,0 0.9075546164484705,0.3702143153886575 l -13.860639674267578 33.159418624304045" fill="#93ff23" stroke="none" /><path d="M 108.09893153111575 80.62456947434976 l 21.52821376255638 -51.502893745330155 a76.82125089917898,76.82125089917898 0 0,0 1.215664258126787,0.520483992401146 l -22.41156177847348 51.124690224966216" fill="#42ffd6" stroke="none" /><path d="M 108.43124777332544 80.76684994638697 l 12.025830209414483 -27.433020966209213 a50.953150611549034,50.953150611549034 0 0,0 0.8002504853401993,0.35904906603040143 l -12.496262813221461 27.22195156966228" fill="#e8ff1a" stroke="none" /><path d="M 109.08828744355905 81.06846463323043 l 9.63248082745703 -20.06512806590101 a43.25744934156508,43.25744934156508 0 0,0 0.6684897727227879,0.3280250282558642 l -9.976441867190252 19.896347877510316" fill="#ff9f0e" stroke="none" /><path d="M 109.73455568895987 81.39251694778311 l 9.852622521513679 -18.833166345422107 a42.254701248095174,42.254701248095174 0 0,0 0.6415771809724523,0.34270831085064235 l -10.175344749014442 18.660779308069714" fill="#ff8e0d" stroke="none" /><path d="M 110.05341064243156 81.56283822128135 l 11.098803912792746 -20.35433054199234 a44.18366278454088,44.18366278454088 0 0,0 0.6645978442952797,0.3698479808055044 l -11.447525846160062 20.160267163626653" fill="#ffae10" stroke="none" /><line stroke="#e1ed5e" stroke-width="0.3" x1="143.23703022742887" x2="145.7803849466894" y1="26.81831364943548" y2="22.513508569990506" /><path d="M 143.74570117128098 25.957352633546492 a86.0,86.0 0 0,1 28.547481713284135,27.462654790039103" fill="none" id="id86" stroke="none" /><text fill="#e1ed5e" style="font-size:6.75px; font-family:Arial;" text-anchor="middle"><textPath startOffset="19.985693538727396" xlink:href="#id86">February</textPath></text><path d="M 110.68208982089419 81.91981866633111 l 14.15836232819354 -23.964014773665053 a48.83403003319582,48.83403003319582 0 0,0 0.7200413408449804,0.43381685126154884 l -14.568765735256159 23.71675131294489" fill="#fff617" stroke="none" /><path d="M 110.99172775467656 82.1063720568725 l 10.306446221079696 -16.778046018960847 a40.690750669346656,40.690750669346656 0 0,0 0.5936603181277774,0.37175003674911195 l -10.593725691579737 16.59815164088879" fill="#ff740a" stroke="none" /><path d="M 112.48926042617603 83.11751280151076 l 15.36168136480361 -20.76531196715334 a46.82981679081283,46.82981679081283 0 0,0 0.6439185579589268,0.4849861080229671 l -15.71684607652092 20.49780926962453" fill="#ffd814" stroke="none" /><path d="M 113.6212207817346 84.01681056812373 l 22.742249352904967 -26.685837146247042 a56.061999512659355,56.061999512659355 0 0,0 0.7290895108175883,0.6322592392136698 l -23.19823266236932 26.2904129136137" fill="#9fff22" stroke="none" /><path d="M 113.89432698308785 84.25364557470407 l 8.629805682348552 -9.780105150907692 a34.04315923685311,34.04315923685311 0 0,0 0.436058846773027,0.3914979381106987 l -8.796875516717568 9.630108204027696" fill="#ff0000" stroke="none" /><line stroke="#e1ed5e" stroke-width="0.3" x1="172.23445277983987" x2="176.4835382374775" y1="55.19839476539836" y2="52.563006222186495" /><path d="M 173.08426987136738 54.67131705675599 a86.0,86.0 0 0,1 12.851231095245387,41.99856678651699" fill="none" id="id87" stroke="none" /><text fill="#e1ed5e" style="font-size:6.75px; font-family:Arial;" text-anchor="middle"><textPath startOffset="22.20632615414155" xlink:href="#id87">March</textPath></text><line stroke="#e1ed5e" stroke-width="0.3" x1="184.98032266829074" x2="189.97916517819016" y1="98.17113171792111" y2="98.06355123074" /><path d="M 185.9800911702706 98.14961562048488 a86.0,86.0 0 0,1 -9.607161424134198,41.387399972396054" fill="none" id="id88" stroke="none" /><text fill="#e1ed5e" style="font-size:6.75px; font-family:Arial;" text-anchor="middle"><textPath startOffset="21.466115282336823" xlink:href="#id88">April</textPath></text><line stroke="#e1ed5e" stroke-width="0.3" x1="174.80103733775053" x2="179.2010983576182" y1="140.37084112569926" y2="142.7455964860345" /><path d="M 175.68104954172406 140.8457921977663 a86.0,86.0 0 0,1 -30.038265399797805,32.042727171017184" fill="none" id="id89" stroke="none" /><text fill="#e1ed5e" style="font-size:6.75px; font-family:Arial;" text-anchor="middle"><textPath startOffset="22.206326154141568" xlink:href="#id89">May</textPath></text><line stroke="#e1ed5e" stroke-width="0.3" x1="143.8653032363475" x2="146.44561519142675" y1="172.8068346515853" y2="177.08958963109032" /><path d="M 144.38136562736335 173.6633856474863 a86.0,86.0 0 0,1 -40.68145358897372,12.25698825130547" fill="none" id="id90" stroke="none" /><text fill="#e1ed5e" style="font-size:6.75px; font-family:Arial;" text-anchor="middle"><textPath startOffset="21.466115282336833" xlink:href="#id90">June</textPath></text><line stroke="#e1ed5e" stroke-width="0.3" x1="102.19456741930631" x2="102.32365962044197" y1="184.97166512339345" y2="189.96999836594603" /><path d="M 102.22038585953345 185.97133177190398 a86.0,86.0 0 0,1 -42.740103519485714,-10.115201625700543" fill="none" id="id91" stroke="none" /><text fill="#e1ed5e" style="font-size:6.75px; font-family:Arial;" text-anchor="middle"><textPath startOffset="22.20632615414155" xlink:href="#id91">July</textPath></text><line stroke="#e1ed5e" stroke-width="0.3" x1="58.666819895761336" x2="56.23545636021788" y1="174.27360380694188" y2="178.64263932499728" /><path d="M 58.180547188652646 175.14741091055294 a86.0,86.0 0 0,1 -31.652253787137756,-30.449443065178592" fill="none" id="id92" stroke="none" /><text fill="#e1ed5e" style="font-size:6.75px; font-family:Arial;" text-anchor="middle"><textPath startOffset="22.20632615414155" xlink:href="#id92">August</textPath></text><line stroke="#e1ed5e" stroke-width="0.3" x1="26.63291911575756" x2="22.317208475507996" y1="142.92168965132927" y2="145.44649492493687" /><path d="M 25.769776987707644 143.4266507060508 a86.0,86.0 0 0,1 -11.730757126820373,-40.83630448921669" fill="none" id="id93" stroke="none" /><text fill="#e1ed5e" style="font-size:6.75px; font-family:Arial;" text-anchor="middle"><textPath startOffset="21.46611528233685" xlink:href="#id93">September</textPath></text><line stroke="#e1ed5e" stroke-width="0.3" x1="15.007084014347285" x2="10.007500721073583" y1="101.09737516637583" y2="101.16192664675087" /><path d="M 14.007167355692545 101.11028546245083 a86.0,86.0 0 0,1 10.666146001902534,-42.60595125391555" fill="none" id="id94" stroke="none" /><text fill="#e1ed5e" style="font-size:6.75px; font-family:Arial;" text-anchor="middle"><textPath startOffset="22.20632615414155" xlink:href="#id94">October</textPath></text><line stroke="#e1ed5e" stroke-width="0.3" x1="26.266209847984243" x2="21.928928074336255" y1="57.711370442889674" y2="55.22380399835377" /><path d="M 25.398753493254645 57.213857153982495 a86.0,86.0 0 0,1 29.58750427330803,-30.492523968695096" fill="none" id="id95" stroke="none" /><text fill="#e1ed5e" style="font-size:6.75px; font-family:Arial;" text-anchor="middle"><textPath startOffset="21.46611528233685" xlink:href="#id95">November</textPath></text><line stroke="#e1ed5e" stroke-width="0.3" x1="56.762969772571076" x2="54.21961505331055" y1="26.818313649435495" y2="22.513508569990535" /><path d="M 56.25429882871897 25.957352633546506 a86.0,86.0 0 0,1 42.265352541879196,-11.944610805530505" fill="none" id="id96" stroke="none" /><text fill="#e1ed5e" style="font-size:6.75px; font-family:Arial;" text-anchor="middle"><textPath startOffset="22.20632615414155" xlink:href="#id96">December</textPath></text></svg>