<?xml version="1.0" encoding="utf-8" ?>
<svg baseProfile="full" height="200mm" version="1.1" viewBox="0,0,200,200" width="200mm" xmlns="http://www.w3.org/2000/svg" xmlns:ev="http://www.w3.org/2001/xml-events" xmlns:xlink="http://www.w3.org/1999/xlink"><defs /><rect fill="#1a1a1a" height="200" width="200" x="0" y="0" /><text alignment-baseline="middle" fill="#e1ed5e" style="dominant-baseline: central; font-size:9.0px; font-family:Arial;" text-anchor="middle" x="100.0" y="100.0">2020</text><line stroke="#e1ed5e" stroke-width="0.3" x1="100.0" x2="100.0" y1="15.0" y2="10.0" /><path d="M 100.0 14.0 a86.0,86.0 0 0,1 42.35913384403234,11.155469271406648" fill="none" id="id13" stroke="none" /><text fill="#e1ed5e" style="font-size:6.75px; font-family:Arial;" text-anchor="middle"><textPath startOffset="22.145653131862478" xlink:href="#id13">January</textPath></text><path d="M 101.08105385017728 79.02784411241856 l 1.7152041123590887 -33.27450155930415 a54.31867913299067,54.31867913299067 0 0,0 0.930803974795774,0.05599485573354456 l -2.286152439287325 33.24015472574591" fill="#7bff26" stroke="none" /><path d="M 101.44090949804482 79.04949213459386 l 1.4986919207376332 -21.79065160986111 a42.84212844609304,42.84212844609304 0 0,0 0.7332756806356089,0.05676017524071623 l -1.8725365961484755 21.76171366762534" fill="#fff917" stroke="none" /><path d="M 101.80034050326958 79.07731436759882 l 2.874497529102032 -33.40601849666333 a54.52946178876461,54.52946178876461 0 0,0 0.9319356021127557,0.08825527044987021 l -3.4475326945998006 33.35175147070827" fill="#79ff26" stroke="none" /><path d="M 102.15924093988457 79.11130261209362 l 4.277172505171427 -41.377764049423604 a62.5982398950817,62.5982398950817 0 0,0 1.0679381893994517,0.1196647016281072 l -4.986846596171675 41.298243587288525" fill="#31ff3f" stroke="none" /><path d="M 102.87502721639298 79.19773525538626 l 6.298555040356027 -45.573206650332445 a67.0064012936276,67.0064012936276 0 0,0 1.1380714811911383,0.1672573160912541 l -7.0799516271548475 45.45836826094231" fill="#37ff75" stroke="none" /><path d="M 103.58742460773223 79.30868818359171 l 9.14568042561522 -52.74985432495286 a74.53681538671523,74.53681538671523 0 0,0 1.258839023304059,0.22940240418019356 l -10.049854182470332 52.5850837468413" fill="#41ffcb" stroke="none" /><path d="M 103.94208987418118 79.37332000966035 l 4.7484232114812555 -24.845756735130024 a46.295437350174296,46.295437350174296 0 0,0 0.7793142765318103,0.15588468127560143 l -5.174233973544022 24.760582657191563" fill="#daff1c" stroke="none" /><path d="M 106.04205211174951 79.88797359093562 l 9.475457100397367 -31.540714961819127 a53.93328085029173,53.93328085029173 0 0,0 0.884401450512528,0.2739898300900743 l -10.015499183781525 31.37340854392241" fill="#7fff26" stroke="none" /><line stroke="#e1ed5e" stroke-width="0.3" x1="143.13028292997686" x2="145.6673583964461" y1="26.7553504044142" y2="22.446841604673864" /><path d="M 143.63769802327073 25.89364864446614 a86.0,86.0 0 0,1 29.32050498858742,28.57503671076992" fill="none" id="id14" stroke="none" /><text fill="#e1ed5e" style="font-size:6.75px; font-family:Arial;" text-anchor="middle"><textPath startOffset="20.669276256404974" xlink:href="#id14">February</textPath></text><path d="M 111.5731344415666 82.4767994020092 l 2.3486787383315195 -3.5561989606031053 a25.261788692941632,25.261788692941632 0 0,0 0.35980451273181197,0.2420925337311759 l -2.4093795391603328 3.5153567528148106" fill="#ff0000" stroke="none" /><path d="M 112.16784306229584 82.88440491214696 l 2.5811417170427653 -3.6306990702536406 a25.45469059556319,25.45469059556319 0 0,0 0.3539644299504583,0.2562429503256718 l -2.6430871573671917 3.585855348554894" fill="#ff0300" stroke="none" /><path d="M 112.45986205192187 83.09580414077388 l 4.011210668626658 -5.441977647306583 a27.760542266851736,27.760542266851736 0 0,0 0.3811747328030018,0.28604062568475275 l -4.104038390340426 5.372317994357815" fill="#ff2603" stroke="none" /><line stroke="#e1ed5e" stroke-width="0.3" x1="172.87174338648825" x2="177.1583165268699" y1="56.24261187166439" y2="53.66864786411523" /><path d="M 173.72905801456457 55.72781907015455 a86.0,86.0 0 0,1 12.242430191666344,42.057860355516425" fill="none" id="id15" stroke="none" /><text fill="#e1ed5e" style="font-size:6.75px; font-family:Arial;" text-anchor="middle"><textPath startOffset="22.145653131862474" xlink:href="#id15">March</textPath></text><line stroke="#e1ed5e" stroke-width="0.3" x1="184.99686870605535" x2="189.99668451229388" y1="99.2704041080226" y2="99.22748670261217" /><path d="M 185.99683186730306 99.26182062694052 a86.0,86.0 0 0,1 -10.086455211305974,41.156179273409016" fill="none" id="id16" stroke="none" /><text fill="#e1ed5e" style="font-size:6.75px; font-family:Arial;" text-anchor="middle"><textPath startOffset="21.40746469413373" xlink:href="#id16">April</textPath></text><line stroke="#e1ed5e" stroke-width="0.3" x1="174.33088141563837" x2="178.70328620479359" y1="141.23008692659167" y2="143.65538615756765" /><path d="M 175.20536237346943 141.71514677278685 a86.0,86.0 0 0,1 -30.301960400862466,31.63118572779886" fill="none" id="id17" stroke="none" /><text fill="#e1ed5e" style="font-size:6.75px; font-family:Arial;" text-anchor="middle"><textPath startOffset="22.145653131862474" xlink:href="#id17">May</textPath></text><path d="M 118.18653347947321 110.5 l 21.947770720366826 12.671551333515966 a46.34310266703194,46.34310266703194 0 0,0 -0.40368437295026843,0.6855443191031221 l -21.727012637286794 -13.046446820912637" fill="#d9ff1c" stroke="none" /><path d="M 115.16444852881244 114.52719865689866 l 23.00442589100331 22.037719622414723 a52.856941107564396,52.856941107564396 0 0,0 -0.6333097158789311,0.6498315600326251 l -22.62272937397357 -22.429373874515083" fill="#8bff24" stroke="none" /><path d="M 113.03279911837588 116.46651593811092 l 20.46735204077664 25.85983068788182 a53.97943818149421,53.97943818149421 0 0,0 -0.7315243476490753,0.5688377573173844 l -20.02041774849233 -26.20736949682" fill="#7fff26" stroke="none" /><path d="M 111.27062007382361 117.71928675628689 l 17.035780901094903 26.78307714451847 a52.74194468269607,52.74194468269607 0 0,0 -0.7681132667312865,0.47935948785190274 l -16.573503505573903 -27.07157242921192" fill="#8dff24" stroke="none" /><line stroke="#e1ed5e" stroke-width="0.3" x1="143.1302829299769" x2="145.6673583964461" y1="173.24464959558577" y2="177.55315839532614" /><path d="M 143.63769802327073 174.10635135553383 a86.0,86.0 0 0,1 -40.685524379131806,11.842963189579606" fill="none" id="id18" stroke="none" /><text fill="#e1ed5e" style="font-size:6.75px; font-family:Arial;" text-anchor="middle"><textPath startOffset="21.407464694133747" xlink:href="#id18">June</textPath></text><path d="M 108.73861861582097 119.09545874513695 l 15.431574322263614 33.720774849906405 a58.08401464973319,58.08401464973319 0 0,0 -0.9102224156935528,0.4071309089780015 l -14.850438503714436 -33.98070950979425" fill="#52ff2b" stroke="none" /><path d="M 106.72888874123015 119.89276391827305 l 10.896334887924986 32.21307794432447 a55.00606570359081,55.00606570359081 0 0,0 -0.8970631807111732,0.29488248543858303 l -10.34174896956608 -32.39538135116507" fill="#73ff27" stroke="none" /><path d="M 104.29559338865022 120.5559693870025 l 7.820656351522236 37.42467175150231 a59.23308412195255,59.23308412195255 0 0,0 -0.9971001623785998,0.1994479578944164 l -7.177059703612678 -37.55340910605959" fill="#46ff2d" stroke="none" /><path d="M 103.94208987418118 120.62667999033965 l 5.912553478871153 30.936978208741795 a52.49690317044957,52.49690317044957 0 0,0 -0.8866108643186609,0.16157003404069248 l -5.380607881001436 -31.03391641671385" fill="#90ff24" stroke="none" /><path d="M 102.51750503828377 120.84855314841334 l 5.818706088328207 48.18723350806379 a69.53727241721576,69.53727241721576 0 0,0 -1.1863194384615912,0.1329295675051771 l -4.990650748265816 -48.28001883607594" fill="#3aff93" stroke="none" /><path d="M 102.15924093988457 120.88869738790638 l 3.0623357678629786 29.625320627012304 a50.783175159952535,50.783175159952535 0 0,0 -0.8679097017905815,0.08219195112188327 l -2.5533265026873817 -29.67352433363937" fill="#a3ff21" stroke="none" /><path d="M 101.80034050326958 120.92268563240118 l 3.531817102738081 41.04506831764695 a62.19673974051222,62.19673974051222 0 0,0 -1.0645446041254918,0.08240248500993036 l -2.826703503837353 -41.09964856965194" fill="#30ff3a" stroke="none" /><line stroke="#e1ed5e" stroke-width="0.3" x1="101.45913802915013" x2="101.54496967792366" y1="184.9874750549273" y2="189.98673829345242" /><path d="M 101.47630435890484 185.9873277026323 a86.0,86.0 0 0,1 -42.54439059252881,-10.42667462771756" fill="none" id="id19" stroke="none" /><text fill="#e1ed5e" style="font-size:6.75px; font-family:Arial;" text-anchor="middle"><textPath startOffset="22.145653131862474" xlink:href="#id19">July</textPath></text><path d="M 99.27912038922189 120.98762331915562 l -1.181254432775706 34.390933948623626 a55.41121474016204,55.41121474016204 0 0,0 -0.950366291581974,-0.040812817735008305 l 1.7714464849585188 -34.36558856246279" fill="#6fff28" stroke="none" /><path d="M 98.91894614982273 120.97215588758144 l -1.3258806030140564 25.721729486622394 a46.75587946773375,46.75587946773375 0 0,0 -0.801207966546599,-0.04819868169254953 l 1.7672329216931018 -25.695178827105153" fill="#d4ff1c" stroke="none" /><path d="M 96.76829788921471 120.74984581791261 l -9.695106332355873 62.24953745373786 a84.0,84.0 0 0,0 -1.4228899877877481,-0.23413600601732654 l 10.762273823196685 -62.07393544922487" fill="#4dd2ff" stroke="none" /><path d="M 94.30408787586889 120.21278271476187 l -9.146768926062014 32.45865610555398 a54.72280738558683,54.72280738558683 0 0,0 -0.9019881843281307,-0.26255561474127265 l 9.702617122771752 -32.296856796510184" fill="#76ff27" stroke="none" /><path d="M 93.95794788825049 120.11202640906438 l -9.7860083170751 32.574438960829966 a55.012645183735714,55.012645183735714 0 0,0 -0.9021009371204096,-0.27947317628490675 l 10.343749887067142 -32.40164919673841" fill="#73ff27" stroke="none" /><path d="M 91.59046798132341 119.24265499422711 l -9.660258478892258 22.104561900893295 a45.123271973541094,45.123271973541094 0 0,0 -0.7071173345615395,-0.3162845895799865 l 10.038289216309433 -21.935473560403455" fill="#e8ff1a" stroke="none" /><line stroke="#e1ed5e" stroke-width="0.3" x1="58.13341422392154" x2="55.670673884152215" y1="173.97424548756322" y2="178.32567169271397" /><path d="M 57.64086615596767 174.84453072859336 a86.0,86.0 0 0,1 -31.369924170532244,-30.572349798747886" fill="none" id="id20" stroke="none" /><text fill="#e1ed5e" style="font-size:6.75px; font-family:Arial;" text-anchor="middle"><textPath startOffset="22.145653131862474" xlink:href="#id20">August</textPath></text><path d="M 87.54013794807813 116.9041958592261 l -14.888986012786448 20.1997690389035 a46.09407447414618,46.09407447414618 0 0,0 -0.6329089811211659,-0.47494669867050915 l 15.233547982818383 -19.941203312968977" fill="#dcff1b" stroke="none" /><path d="M 87.2517909369889 116.68781488649013 l -8.393068224722859 10.986795727271746 a34.8258191286321,34.8258191286321 0 0,0 -0.47195627590194916,-0.366996054743369 l 8.580434445260037 -10.841098620907584" fill="#ff8d0d" stroke="none" /><path d="M 85.34317274990678 115.03919595460226 l -23.435197367088225 24.046577026837607 a54.5774677773952,54.5774677773952 0 0,0 -0.6653463204695076,-0.659659633952571 l 23.844535607687696 -23.640737382656376" fill="#78ff26" stroke="none" /><path d="M 83.8745106332314 113.45245675266167 l -22.192396677218397 18.513686608074607 a49.90084881281197,49.90084881281197 0 0,0 -0.5430951294695436,-0.6624877519200214 l 22.506938625926573 -18.129996574456094" fill="#aeff20" stroke="none" /><path d="M 82.18462484594161 111.1181117155819 l -29.0784311265208 18.147091654416517 a55.276407225577294,55.276407225577294 0 0,0 -0.49546622141250096,-0.809306836945208 l 29.385665312388703 -17.64524770134675" fill="#70ff27" stroke="none" /><line stroke="#e1ed5e" stroke-width="0.3" x1="26.387840678322732" x2="22.057713659400548" y1="142.50000000000003" y2="145.00000000000006" /><path d="M 25.521815274538298 143.00000000000003 a86.0,86.0 0 0,1 -11.493303480769221,-40.785679425670985" fill="none" id="id21" stroke="none" /><text fill="#e1ed5e" style="font-size:6.75px; font-family:Arial;" text-anchor="middle"><textPath startOffset="21.40746469413373" xlink:href="#id21">September</textPath></text><path d="M 81.1358732173502 109.22738970284198 l -22.201485604325377 10.859859139706742 a45.715228171581565,45.715228171581565 0 0,0 -0.3387732252663552,-0.7079057460304524 l 22.384638087551643 -10.477140891611187" fill="#e1ff1b" stroke="none" /><path d="M 80.9802524753101 108.90220220490707 l -26.093442293979106 12.21304852872192 a49.81017676297968,49.81017676297968 0 0,0 -0.3558238248934594,-0.7775392733685058 l 26.299250583727623 -11.763320273138726" fill="#afff20" stroke="none" /><path d="M 80.05021161711548 106.5578916946017 l -24.93709868118566 8.19731965022302 a47.24985600118835,47.24985600118835 0 0,0 -0.2466786377225693,-0.7727173192586052 l 25.074142034685487 -7.768033297273023" fill="#ceff1d" stroke="none" /><path d="M 79.407916724674 104.11899336999214 l -33.54834264441095 6.7106081050153294 a55.212915036954975,55.212915036954975 0 0,0 -0.17792679402195213,-0.9309881710294902 l 33.65859573071506 -6.133717368952524" fill="#71ff27" stroke="none" /><path d="M 79.0935383218832 101.97986365728391 l -25.517827473537988 2.4165647925292397 a46.631997666310404,46.631997666310404 0 0,0 -0.06862981496347904,-0.7975824800269491 l 25.55555091119921 -1.9781612651266283" fill="#d5ff1c" stroke="none" /><line stroke="#e1ed5e" stroke-width="0.3" x1="15.003131293944662" x2="10.003315487706104" y1="100.72959589197737" y2="100.7725132973878" /><path d="M 14.003168132696942 100.73817937305945 a86.0,86.0 0 0,1 10.791469493833604,-42.453326145846276" fill="none" id="id22" stroke="none" /><text fill="#e1ed5e" style="font-size:6.75px; font-family:Arial;" text-anchor="middle"><textPath startOffset="22.145653131862435" xlink:href="#id22">October</textPath></text><path d="M 79.83685265289637 94.1308016681162 l -26.482274521721873 -7.708604156468944 a48.58139666305841,48.58139666305841 0 0,0 0.23995434482171035,-0.7987299729903418 l 26.346043856896536 8.16207173305001" fill="#beff1f" stroke="none" /><path d="M 80.5471966667186 92.08871423366112 l -27.562584859657537 -11.209463312192613 a50.75480048484975,50.75480048484975 0 0,0 0.33516090918838426,-0.8042641710072751 l 27.366098105932675 11.680959992641151" fill="#a4ff21" stroke="none" /><path d="M 80.68587082218212 91.75594674310238 l -19.146799455385974 -8.172630148431772 a41.81806458169982,41.81806458169982 0 0,0 0.2874815069153971,-0.6578139476141833 l 19.0036840664536 8.50010616582182" fill="#ffec16" stroke="none" /><path d="M 81.63589988554816 89.8137432299009 l -18.1445653270322 -10.064484524212375 a41.74895418195938,41.74895418195938 0 0,0 0.35301053847464625,-0.6237357966682073 l 17.969121423536183 10.374477090979688" fill="#ffeb16" stroke="none" /><line stroke="#e1ed5e" stroke-width="0.3" x1="26.387840678322718" x2="22.05771365940052" y1="57.5" y2="55.0" /><path d="M 25.521815274538284 57.0 a86.0,86.0 0 0,1 29.574782752854787,-30.346332500585742" fill="none" id="id23" stroke="none" /><text fill="#e1ed5e" style="font-size:6.75px; font-family:Arial;" text-anchor="middle"><textPath startOffset="21.40746469413373" xlink:href="#id23">November</textPath></text><path d="M 81.81346652052679 89.5 l -21.545894514578197 -12.439527997923005 a45.87905599584601,45.87905599584601 0 0,0 0.3996421664794386,-0.6786797688049199 l 21.32917863796898 12.807558935021497" fill="#dfff1b" stroke="none" /><path d="M 82.98947788004972 87.6856937992154 l -16.93945379555271 -12.262858214553647 a41.912264020949785,41.912264020949785 0 0,0 0.4269023156548064,-0.5791749801493927 l 16.726449460314083 12.551839503971904" fill="#ffed16" stroke="none" /><path d="M 83.2033758604659 87.39550010848427 l -17.360498867395368 -13.027641999543691 a42.704985072400085,42.704985072400085 0 0,0 0.4450429304861241,-0.5825754820763213 l 17.134303959554934 13.3237383948609" fill="#fff717" stroke="none" /><path d="M 84.58840730492382 85.73525988315684 l -15.22324427496452 -14.090407631066451 a41.74335444099762,41.74335444099762 0 0,0 0.4912679300176981,-0.5217095173144306 l 14.97912051121055 14.349658608325393" fill="#ffeb16" stroke="none" /><path d="M 84.83555147118756 85.47280134310135 l -15.054437974848923 -14.421811034741 a41.84765541398722,41.84765541398722 0 0,0 0.5014010687167698,-0.51448166752669 l 14.804650104981349 14.67811539433542" fill="#ffec16" stroke="none" /><line stroke="#e1ed5e" stroke-width="0.3" x1="56.869717070023135" x2="54.33264160355391" y1="26.7553504044142" y2="22.446841604673864" /><path d="M 56.362301976729285 25.89364864446614 a86.0,86.0 0 0,1 42.16139366436587,-11.88097634709845" fill="none" id="id24" stroke="none" /><text fill="#e1ed5e" style="font-size:6.75px; font-family:Arial;" text-anchor="middle"><textPath startOffset="22.145653131862474" xlink:href="#id24">December</textPath></text><path d="M 98.1996594967304 79.07731436759882 l -3.4376209449370494 -39.950366179983384 a61.097992414531554,61.097992414531554 0 0,0 1.0457387062272008,-0.0809467895757877 l 2.7513132439346313 40.00349073655423" fill="#32ff2f" stroke="none" /></svg>